<svg width="22" height="22" viewBox="0 0 29 29" fill="none" xmlns="http://www.w3.org/2000/svg">
<g clip-path="url(#clip0)">
<path d="M25.9635 13.6686L23.6467 11.3514C23.1864 10.8915 22.4409 10.8915 21.9806 11.3514C21.5203 11.8117 21.5203 12.5579 21.9806 13.0178L24.2974 15.3351C26.745 17.7831 26.7427 21.795 24.2974 24.2733C21.8502 26.7205 17.8382 26.7185 15.3592 24.2733L13.042 21.9565C12.5821 21.4962 11.8359 21.4962 11.3755 21.9565C10.9152 22.4168 10.9152 23.1626 11.3755 23.6225L13.6982 25.9452C15.3977 27.6218 17.6214 28.4608 19.8404 28.4608C22.0641 28.4608 24.284 27.6183 25.9693 25.9338C29.3266 22.5306 29.3242 17.029 25.9635 13.6686Z" fill="white"/>
<path d="M17.6749 5.38444L15.3522 3.06132C11.9499 -0.295507 6.44783 -0.292781 3.08158 3.07271C-0.275629 6.4755 -0.272903 11.9771 3.08747 15.3375L5.40471 17.6547C5.63449 17.8849 5.93608 17.9999 6.23774 17.9999C6.53895 17.9999 6.8406 17.8849 7.07077 17.6543C7.53104 17.1944 7.53104 16.4482 7.07077 15.9883L4.75353 13.671C2.30591 11.2234 2.30825 7.21147 4.75353 4.73321C7.20153 2.28598 11.2135 2.28838 13.6917 4.73321L16.009 7.05045C16.4693 7.51078 17.2147 7.51078 17.675 7.05045C18.1352 6.59056 18.1352 5.84434 17.6749 5.38444Z" fill="white"/>
<path d="M18.3463 16.6545L12.3765 10.6847C11.9166 10.2244 11.1704 10.2244 10.7104 10.6847C10.2502 11.1446 10.2502 11.8908 10.7104 12.3508L16.6802 18.3205C16.9104 18.5507 17.2116 18.6658 17.5132 18.6658C17.8149 18.6658 18.1161 18.5507 18.3463 18.3205C18.8065 17.8606 18.8065 17.1144 18.3463 16.6545Z" fill="white"/>
</g>
<defs>
<clipPath id="clip0">
<rect width="27.9191" height="27.9191" fill="white" transform="translate(0.566406 0.543457)"/>
</clipPath>
</defs>
</svg>
