<svg width="32" height="33" viewBox="0 0 42 43" fill="none" xmlns="http://www.w3.org/2000/svg">
<path d="M20.7599 23.1048C21.7151 23.1048 22.4894 22.3304 22.4894 21.3752C22.4894 20.42 21.7151 19.6456 20.7599 19.6456C19.8046 19.6456 19.0303 20.42 19.0303 21.3752C19.0303 22.3304 19.8046 23.1048 20.7599 23.1048Z" stroke="#333333" stroke-width="3.45915" stroke-linecap="round" stroke-linejoin="round"/>
<path d="M32.8643 23.1048C33.8196 23.1048 34.5939 22.3304 34.5939 21.3752C34.5939 20.42 33.8196 19.6456 32.8643 19.6456C31.9091 19.6456 31.1348 20.42 31.1348 21.3752C31.1348 22.3304 31.9091 23.1048 32.8643 23.1048Z" stroke="#333333" stroke-width="3.45915" stroke-linecap="round" stroke-linejoin="round"/>
<path d="M8.65341 23.1048C9.60862 23.1048 10.383 22.3304 10.383 21.3752C10.383 20.42 9.60862 19.6456 8.65341 19.6456C7.69819 19.6456 6.92383 20.42 6.92383 21.3752C6.92383 22.3304 7.69819 23.1048 8.65341 23.1048Z" stroke="#333333" stroke-width="3.45915" stroke-linecap="round" stroke-linejoin="round"/>
</svg>
