<svg width="70" height="70" viewBox="0 0 70 70" fill="none" xmlns="http://www.w3.org/2000/svg">
<circle cx="34.9561" cy="34.9561" r="34.9561" fill="#ABE188" fill-opacity="0.1"/>
<g clip-path="url(#clip0)">
<path d="M36.9246 48.2765V46.6304H37.4428C37.8892 46.6304 38.3059 46.598 38.6956 46.5361C39.0872 46.4714 39.4249 46.3394 39.7114 46.1427C39.9978 45.946 40.2286 45.6604 40.402 45.2913C40.5744 44.9213 40.6597 44.4301 40.6597 43.8158V34.6294H27.9097V43.8158C27.9097 44.4292 27.9951 44.9195 28.1675 45.2922C28.3399 45.6604 28.5698 45.9469 28.8572 46.1427C29.1446 46.3412 29.485 46.4705 29.881 46.5361C30.278 46.5989 30.6911 46.6313 31.1258 46.6313H31.6439V48.2774H20.2339V46.6313H20.7323C21.1787 46.6313 21.5954 46.5989 21.986 46.5361C22.3758 46.4723 22.7162 46.3412 23.0107 46.1427C23.3035 45.9442 23.5334 45.6604 23.7014 45.2922C23.8666 44.9222 23.9483 44.4292 23.9483 43.8158V24.597C23.9483 24.0231 23.8621 23.5615 23.6906 23.2094C23.5164 22.8574 23.2829 22.5871 22.9901 22.3958C22.6964 22.2045 22.356 22.0797 21.9645 22.0222C21.5774 21.9638 21.1652 21.936 20.7314 21.936H20.2339V20.2898H31.6439V21.936H31.1258C30.692 21.936 30.2789 21.9674 29.881 22.0321C29.4859 22.0949 29.1455 22.2269 28.8572 22.4245C28.5707 22.6221 28.3408 22.9059 28.1675 23.2768C27.9951 23.6459 27.9097 24.138 27.9097 24.7505V32.6743H40.6579V24.7505C40.6579 24.1372 40.5717 23.6459 40.4002 23.2759C40.2286 22.9059 39.9978 22.6212 39.7105 22.4245C39.4231 22.2269 39.0854 22.0958 38.6947 22.0321C38.3041 21.9674 37.8892 21.936 37.441 21.936H36.9228V20.2898H48.3329V21.936H47.8362C47.389 21.936 46.9732 21.9674 46.5825 22.0321C46.1928 22.0949 45.8533 22.2269 45.5578 22.4245C45.2651 22.6221 45.0351 22.9059 44.8681 23.2759C44.7011 23.645 44.6193 24.1372 44.6193 24.7505V44.0071C44.6193 44.5818 44.7065 45.0444 44.8771 45.3946C45.0495 45.7467 45.2839 46.0116 45.5767 46.1885C45.8695 46.3681 46.2098 46.4858 46.6014 46.5441C46.9912 46.6016 47.4025 46.6304 47.8344 46.6304H48.3338V48.2765H36.9246Z" fill="#ABE188"/>
</g>
<defs>
<clipPath id="clip0">
<rect width="28.1008" height="28.1008" fill="white" transform="translate(20.2324 20.2322)"/>
</clipPath>
</defs>
</svg>
