<?xml version="1.0" encoding="iso-8859-1"?>
<!-- Generator: Adobe Illustrator 19.0.0, SVG Export Plug-In . SVG Version: 6.00 Build 0)  -->
<svg version="1.1" id="Capa_1" xmlns="http://www.w3.org/2000/svg" xmlns:xlink="http://www.w3.org/1999/xlink" x="0px" y="0px"
	 viewBox="0 0 512 512" style="enable-background:new 0 0 512 512;" xml:space="preserve">
<path style="fill:#787880;" d="M235.75,70c0,11.537,0,332,0,332h40c0,0,0-323.449,0-332H235.75z"/>
<path style="fill:#FEA542;" d="M235.75,136v120l-166-20v20l-60-60l60-60v20L235.75,136z"/>
<path style="fill:#99E37E;" d="M213.62,405.31c8.95-14.134,24.581-23.31,42.13-23.31c17.423,0,33.143,9.066,42.2,23.41
	c5.55-2.12,11.51-3.41,17.8-3.41c24.5,0,44.8,17.65,49.08,40.92c23.27,4.28,40.92,24.58,40.92,49.08c0,3.42-0.34,6.77-1,10h-298
	c-0.66-3.23-1-6.58-1-10c0-24.5,17.65-44.8,40.92-49.08c2.27-12.36,9.07-23.14,18.61-30.53c0.29-0.22,0.57-0.43,0.85-0.64
	c12.718-9.454,30.105-12.943,47.42-6.34C213.57,405.38,213.59,405.34,213.62,405.31z"/>
<path style="fill:#FED46B;" d="M315.75,70c-12.697,0-107.529,0-120,0c0-33.138,26.859-60,60-60C288.888,10,315.75,36.859,315.75,70z
	"/>
<path style="fill:#FEA542;" d="M501.75,256l-60,60v-20l-166,20V196l166,20v-20L501.75,256z"/>
<g>
	<path style="fill:#020202;" d="M402,266c5.52,0,10-4.48,10-10s-4.48-10-10-10s-10,4.48-10,10C392,261.52,396.48,266,402,266z"/>
	<path style="fill:#020202;" d="M110,186c-5.52,0-10,4.48-10,10s4.48,10,10,10s10-4.48,10-10S115.52,186,110,186z"/>
	<path style="fill:#020202;" d="M196,186h-46c-5.523,0-10,4.477-10,10s4.477,10,10,10h46c5.523,0,10-4.477,10-10
		S201.523,186,196,186z"/>
	<path style="fill:#020202;" d="M316,266h46c5.523,0,10-4.477,10-10s-4.477-10-10-10h-46c-5.523,0-10,4.477-10,10
		C306,261.523,310.477,266,316,266z"/>
	<path style="fill:#020202;" d="M502,492h-86c0-26.665-17.579-49.818-42.646-57.354C365.818,409.579,342.665,392,316,392
		c-4.631,0-9.295,0.581-13.936,1.73c-4.528-5.476-9.957-10.075-16.064-13.626v-55.237l146-17.59V316
		c0,8.962,10.826,13.315,17.071,7.071l60-60c3.905-3.905,3.905-10.237,0-14.143l-60-60c-2.861-2.86-7.161-3.715-10.898-2.167
		C434.437,188.309,432,191.956,432,196v8.723l-146-17.59V80h30c5.523,0,10-4.477,10-10c0-38.705-31.325-70-70-70
		c-38.705,0-70,31.325-70,70c0,5.523,4.477,10,10,10h30v47.132l-146,17.59V136c0-8.866-10.765-13.377-17.071-7.071l-60,60
		c-3.905,3.905-3.905,10.237,0,14.143l60,60C69.186,269.327,80,264.938,80,256v-8.723l146,17.59v115.239
		c-6.089,3.541-11.494,8.117-16.002,13.557c-30.614-7.355-62.104,10.285-71.351,40.982C113.581,442.182,96,465.335,96,492H10
		c-5.523,0-10,4.477-10,10s4.477,10,10,10c25.574,0,473.072,0,492,0c5.523,0,10-4.477,10-10S507.523,492,502,492z M440.804,225.928
		c4.602,0.556,8.953-2.125,10.561-6.421L487.858,256l-36.493,36.493c-1.608-4.295-5.949-6.971-10.561-6.421L286,304.723v-97.445
		L440.804,225.928z M256,20c24.486,0,44.454,17.46,49.005,40h-98.011C211.551,37.431,231.546,20,256,20z M266,80
		c0,10.358,0,277.371,0,292.848c-3.28-0.555-6.616-0.848-10-0.848c-3.385,0-6.721,0.293-10,0.848c0-13.309,0-280.892,0-292.848H266z
		 M71.196,226.072C70.797,226.023,70.397,226,70,226c-4.162,0-7.9,2.582-9.364,6.493L24.142,196l36.493-36.493
		c1.608,4.294,5.953,6.975,10.561,6.421L226,147.277v97.445L71.196,226.072z M148.729,452.755c4.083-0.751,7.276-3.946,8.026-8.028
		c4.434-24.145,25.581-30.222,25.844-30.414c12.74-4.625,29.706-2.545,41.669,9.419c3.905,3.905,10.237,3.905,14.143,0
		s3.905-10.237,0-14.143c-2.768-2.768-5.766-5.217-8.953-7.365C236.707,395.702,245.999,392,256,392
		c13.725,0,26.36,7.053,33.745,18.749c2.543,4.027,7.573,5.704,12.024,4.002C306.548,412.926,311.336,412,316,412
		c19.252,0,35.757,13.765,39.245,32.729c0.751,4.082,3.944,7.275,8.026,8.026C382.235,456.243,396,472.748,396,492H116
		C116,472.748,129.765,456.243,148.729,452.755z"/>
</g>
<g>
</g>
<g>
</g>
<g>
</g>
<g>
</g>
<g>
</g>
<g>
</g>
<g>
</g>
<g>
</g>
<g>
</g>
<g>
</g>
<g>
</g>
<g>
</g>
<g>
</g>
<g>
</g>
<g>
</g>
</svg>
