<svg width="16" height="16" viewBox="0 0 16 16" fill="none" xmlns="http://www.w3.org/2000/svg">
<path fill-rule="evenodd" clip-rule="evenodd" d="M8 0C5.80005 0 4 1.79999 4 4C4 6.20001 5.80005 8 8 8C10.2 8 12 6.20001 12 4C12 1.79999 10.2 0 8 0ZM10.1 4C10.1 2.79999 9.19995 1.90002 8 1.90002C6.80005 1.90002 5.90002 2.79999 5.90002 4C5.90002 5.20001 6.80005 6.09998 8 6.09998C9.19995 6.09998 10.1 5.20001 10.1 4ZM14.1 13C14.1 12.4 11 10.9 8 10.9C5 10.9 1.90002 12.4 1.90002 13V14.1H14.1V13ZM0 13C0 10.3 5.30005 9 8 9C10.7 9 16 10.3 16 13V16H0V13Z" fill="black"/>
</svg>
