<svg width="20" height="20" viewBox="0 0 22 22" fill="none" xmlns="http://www.w3.org/2000/svg">
<path d="M19.9375 0H2.0625C0.925375 0 0 0.925375 0 2.0625V19.9375C0 21.0746 0.925375 22 2.0625 22H19.9375C21.0746 22 22 21.0746 22 19.9375V2.0625C22 0.925375 21.0746 0 19.9375 0ZM20.625 19.9375C20.625 20.3163 20.3163 20.625 19.9375 20.625H2.0625C1.68369 20.625 1.375 20.3163 1.375 19.9375V2.0625C1.375 1.683 1.68369 1.375 2.0625 1.375H19.9375C20.3163 1.375 20.625 1.683 20.625 2.0625V19.9375Z" fill="#7D83FF"/>
<path d="M6.46319 4.8125H4.58975C4.34844 4.8125 4.15112 5.00981 4.15112 5.25181V7.12388C4.15112 7.36725 4.34844 7.56456 4.58975 7.56456H6.46319C6.7045 7.56456 6.90181 7.36725 6.90181 7.12388V5.25181C6.90181 5.00981 6.7045 4.8125 6.46319 4.8125Z" fill="#7D83FF"/>
<path d="M17.8482 5.54248H7.93311V6.83154H17.8482V5.54248Z" fill="#7D83FF"/>
<path d="M6.46319 9.625H4.58975C4.34844 9.625 4.15112 9.82231 4.15112 10.0643V11.9384C4.15112 12.1798 4.34844 12.3771 4.58975 12.3771H6.46319C6.7045 12.3771 6.90181 12.1798 6.90181 11.9384V10.0643C6.90181 9.82231 6.7045 9.625 6.46319 9.625Z" fill="#7D83FF"/>
<path d="M17.8482 10.355H7.93311V11.644H17.8482V10.355Z" fill="#7D83FF"/>
<path d="M6.46319 14.4375H4.58975C4.34844 14.4375 4.15112 14.6348 4.15112 14.8768V16.7516C4.15112 16.9929 4.34844 17.1903 4.58975 17.1903H6.46319C6.7045 17.1903 6.90181 16.9929 6.90181 16.7516V14.8768C6.90181 14.6348 6.7045 14.4375 6.46319 14.4375ZM6.55806 16.7482C6.55806 16.7991 6.51475 16.8438 6.46319 16.8438H4.58975C4.53819 16.8438 4.49487 16.8011 4.49487 16.7482V14.8734C4.49487 14.8239 4.53819 14.7785 4.58975 14.7785H6.46319C6.51475 14.7785 6.55806 14.8211 6.55806 14.8734V16.7482Z" fill="#7D83FF"/>
<path d="M17.8482 15.1675H7.93311V16.4565H17.8482V15.1675Z" fill="#7D83FF"/>
</svg>
