<svg width="19" height="19" viewBox="0 0 29 29" fill="none" xmlns="http://www.w3.org/2000/svg">
<path d="M14.561 26.02C21.0437 26.02 26.2989 20.7648 26.2989 14.2822C26.2989 7.79963 21.0437 2.54443 14.561 2.54443C8.07844 2.54443 2.82324 7.79963 2.82324 14.2822C2.82324 20.7648 8.07844 26.02 14.561 26.02Z" stroke="#7D83FF" stroke-opacity="0.7" stroke-width="2.34756" stroke-linecap="round" stroke-linejoin="round"/>
<path d="M11.1455 10.7605C11.4215 9.97605 11.9662 9.31456 12.6831 8.8932C13.4001 8.47184 14.243 8.31782 15.0626 8.45841C15.8822 8.599 16.6257 9.02512 17.1612 9.66132C17.6968 10.2975 17.9899 11.1027 17.9886 11.9343C17.9886 14.2819 14.4673 15.4557 14.4673 15.4557" stroke="#7D83FF" stroke-opacity="0.7" stroke-width="2.34756" stroke-linecap="round" stroke-linejoin="round"/>
<path d="M14.5605 20.1511H14.5716" stroke="#7D83FF" stroke-opacity="0.7" stroke-width="2.34756" stroke-linecap="round" stroke-linejoin="round"/>
</svg>
