<svg width="17" height="17" viewBox="0 0 24 24" fill="none" xmlns="http://www.w3.org/2000/svg">
<path d="M11.9602 21.927H2.99002C2.43984 21.927 1.99336 21.4804 1.99336 20.9303V2.99006C1.99336 2.43989 2.43989 1.99341 2.99002 1.99341H11.9602C12.5113 1.99341 12.9568 1.54791 12.9568 0.99675C12.9568 0.445594 12.5113 0 11.9602 0H2.99002C1.34152 0 0 1.34156 0 2.99006V20.9302C0 22.5787 1.34152 23.9203 2.99002 23.9203H11.9602C12.5113 23.9203 12.9568 23.4748 12.9568 22.9236C12.9568 22.3725 12.5113 21.927 11.9602 21.927Z" fill="#7D83FF"/>
<path d="M23.7031 11.2509L17.6433 5.27082C17.2526 4.88411 16.6207 4.88912 16.234 5.28081C15.8472 5.6725 15.8512 6.30339 16.2439 6.6901L20.5745 10.9638H8.97017C8.41901 10.9638 7.97351 11.4093 7.97351 11.9605C7.97351 12.5117 8.41901 12.9572 8.97017 12.9572H20.5745L16.2439 17.2309C15.8513 17.6177 15.8483 18.2485 16.234 18.6402C16.4293 18.8376 16.6864 18.9372 16.9436 18.9372C17.1968 18.9372 17.4499 18.8416 17.6433 18.6502L23.7031 12.6701C23.8924 12.4827 24.0001 12.2275 24.0001 11.9604C24.0001 11.6934 23.8934 11.4393 23.7031 11.2509Z" fill="#7D83FF"/>
</svg>
