<svg width="19" height="19" viewBox="0 0 29 29" fill="none" xmlns="http://www.w3.org/2000/svg">
<path d="M22.9524 12.9257H6.51944C5.22291 12.9257 4.17188 13.9767 4.17188 15.2732V23.4897C4.17188 24.7862 5.22291 25.8372 6.51944 25.8372H22.9524C24.2489 25.8372 25.2999 24.7862 25.2999 23.4897V15.2732C25.2999 13.9767 24.2489 12.9257 22.9524 12.9257Z" stroke="#7D83FF" stroke-opacity="0.7" stroke-width="2.34756" stroke-linecap="round" stroke-linejoin="round"/>
<path d="M8.86719 12.9257V8.2306C8.86719 6.67407 9.48552 5.18129 10.5861 4.08066C11.6868 2.98002 13.1796 2.36169 14.7361 2.36169C16.2926 2.36169 17.7854 2.98002 18.886 4.08066C19.9867 5.18129 20.605 6.67407 20.605 8.2306V12.9257" stroke="#7D83FF" stroke-opacity="0.7" stroke-width="2.34756" stroke-linecap="round" stroke-linejoin="round"/>
</svg>
