<svg width="20" height="19" viewBox="0 0 30 29" fill="none" xmlns="http://www.w3.org/2000/svg">
<g clip-path="url(#clip0)">
<path d="M26.5623 6.52346C26.5619 6.51438 26.5609 6.5053 26.5593 6.49628C26.5241 6.44598 26.4808 6.40269 26.4446 6.3534C26.1816 5.99511 25.9031 5.65026 25.6093 5.31881C25.5288 5.22823 25.4483 5.13866 25.3658 5.05009C25.0632 4.72606 24.7458 4.41707 24.4137 4.12323C24.3523 4.06886 24.295 4.01255 24.2336 3.95918C23.4151 3.258 22.5189 2.65287 21.5626 2.15577C21.5244 2.13566 21.4841 2.11856 21.4449 2.09839C21.019 1.88198 20.5823 1.68745 20.1365 1.51567C20.0359 1.47947 19.9443 1.44521 19.8487 1.41501C19.4522 1.27213 19.0496 1.147 18.6411 1.03962C18.5203 1.00743 18.3995 0.974229 18.2768 0.946042C17.8742 0.85246 17.4717 0.780991 17.06 0.722613C16.9352 0.70451 16.8125 0.680333 16.6866 0.665237C15.6264 0.536392 14.5546 0.536392 13.4943 0.665237C13.3686 0.680333 13.2458 0.70451 13.121 0.722613C12.7094 0.780991 12.3028 0.85246 11.9042 0.946042C11.7814 0.974229 11.6607 1.00743 11.5399 1.03962C11.1286 1.14695 10.7261 1.27208 10.3322 1.41501C10.2316 1.44922 10.14 1.48348 10.0444 1.51567C9.59869 1.68745 9.16197 1.88192 8.7361 2.09839C8.69683 2.1185 8.65662 2.1356 8.61835 2.15577C7.65888 2.65234 6.75968 3.25741 5.93831 3.95918C5.87693 4.01249 5.81955 4.06886 5.75817 4.12323C5.4227 4.41843 5.10533 4.72742 4.80613 5.05009C4.72363 5.13866 4.64308 5.22823 4.56259 5.31881C4.26805 5.64956 3.9896 5.9944 3.72731 6.35334C3.69111 6.40264 3.64782 6.44592 3.61256 6.49622C3.60796 6.505 3.60389 6.51408 3.60047 6.5234C0.129269 11.3881 0.129269 17.9199 3.60047 22.7846C3.60389 22.7939 3.6079 22.803 3.61256 22.8117C3.64777 22.862 3.69105 22.9053 3.72731 22.9546C3.98966 23.3129 4.26805 23.6578 4.56259 23.9892C4.64308 24.0798 4.72363 24.1694 4.80613 24.2579C5.1094 24.582 5.42671 24.891 5.75817 25.1848C5.81955 25.2392 5.87693 25.2955 5.93831 25.3488C6.75679 26.05 7.65298 26.6552 8.60926 27.1523C8.64754 27.1724 8.68775 27.1895 8.72702 27.2096C9.15289 27.426 9.58955 27.6206 10.0353 27.7924C10.136 27.8286 10.2276 27.8628 10.3232 27.893C10.7197 28.0359 11.1222 28.161 11.5308 28.2684C11.6516 28.3006 11.7724 28.3338 11.8951 28.362C12.2977 28.4556 12.7002 28.527 13.1119 28.5854C13.2367 28.6035 13.3594 28.6277 13.4853 28.6428C14.5454 28.7716 15.6173 28.7716 16.6775 28.6428C16.8033 28.6277 16.9261 28.6035 17.0509 28.5854C17.4625 28.527 17.8691 28.4556 18.2677 28.362C18.3904 28.3338 18.5112 28.3006 18.632 28.2684C19.0439 28.1611 19.4465 28.0359 19.8396 27.893C19.9403 27.8588 20.0319 27.8245 20.1275 27.7924C20.5732 27.6206 21.0099 27.4261 21.4358 27.2096C21.4751 27.1895 21.5153 27.1724 21.5535 27.1523C22.5098 26.6551 23.406 26.05 24.2245 25.3488C24.2859 25.2955 24.3433 25.2392 24.4046 25.1848C24.7401 24.8902 25.0575 24.5813 25.3567 24.2579C25.4392 24.1694 25.5197 24.0798 25.6002 23.9892C25.8948 23.6578 26.1732 23.3129 26.4355 22.9546C26.4717 22.9053 26.515 22.862 26.5502 22.8117C26.5548 22.803 26.5589 22.7939 26.5623 22.7846C30.0335 17.92 30.0335 11.3881 26.5623 6.52346ZM25.4141 8.42759C26.3765 10.0127 26.9577 11.7997 27.1118 13.6477H21.0836C21.0097 12.4486 20.821 11.2593 20.52 10.0962C22.2228 9.77731 23.871 9.21535 25.4141 8.42759ZM17.6467 2.85519C17.7031 2.86828 17.7574 2.88638 17.8138 2.89947C18.1741 2.98403 18.5314 3.08062 18.8806 3.20139C18.934 3.21949 18.9863 3.24066 19.0386 3.25977C19.3848 3.38053 19.726 3.51439 20.0601 3.66234C20.1185 3.68952 20.1759 3.71971 20.2343 3.7469C20.5543 3.89921 20.8669 4.06391 21.1722 4.24105L21.3735 4.36282C21.6633 4.53996 21.9451 4.72948 22.2188 4.93145C22.2893 4.98275 22.3597 5.0321 22.4292 5.08842C22.6975 5.28968 22.9545 5.50538 23.2 5.73553C23.2644 5.79391 23.3309 5.85129 23.3943 5.91167C23.6519 6.15621 23.8975 6.41484 24.135 6.68256C24.1652 6.71776 24.1974 6.74996 24.2276 6.78321C22.8649 7.43263 21.4213 7.89635 19.9353 8.16194C19.247 6.26955 18.3376 4.46501 17.2262 2.78584C17.3659 2.81096 17.5089 2.82505 17.6467 2.85519ZM11.0972 13.6477C11.1766 12.5588 11.3619 11.4802 11.6507 10.4273C12.791 10.5627 13.9383 10.6299 15.0865 10.6285C16.2359 10.6282 17.3842 10.5593 18.5254 10.4222C18.8136 11.4768 18.998 12.5571 19.0758 13.6477H11.0972ZM19.0758 15.6605C18.9965 16.7494 18.8111 17.828 18.5223 18.8809C17.382 18.7454 16.2348 18.6783 15.0865 18.6796C13.9372 18.6783 12.7889 18.7455 11.6476 18.8809C11.3597 17.8279 11.1754 16.7493 11.0971 15.6605H19.0758ZM15.0865 3.23364C16.2317 4.85685 17.1737 6.61439 17.8913 8.46687C16.9596 8.56581 16.0234 8.61552 15.0865 8.61582C14.1506 8.6147 13.2154 8.56469 12.2847 8.46586C13.0031 6.61463 13.944 4.85768 15.0865 3.23364ZM6.03909 6.68149C6.27561 6.41378 6.52216 6.15515 6.77979 5.91061C6.84318 5.85022 6.90963 5.79285 6.97403 5.73447C7.22228 5.50839 7.47926 5.29268 7.74491 5.08736C7.81438 5.03399 7.88479 4.9867 7.95525 4.93038C8.22898 4.72913 8.51079 4.53955 8.80062 4.36176L9.00187 4.23999C9.30715 4.06155 9.6198 3.8968 9.93982 3.74584C9.9982 3.71865 10.0556 3.68846 10.1139 3.66128C10.4481 3.51032 10.7892 3.37646 11.1355 3.2587C11.1878 3.2396 11.2361 3.21843 11.2934 3.20033C11.6426 3.08357 11.9979 2.98698 12.3602 2.89841C12.4166 2.88532 12.4709 2.86722 12.5283 2.85513C12.6661 2.82494 12.8091 2.81084 12.9489 2.78566C11.837 4.46513 10.9274 6.27002 10.2387 8.16277C8.75279 7.89718 7.30914 7.43345 5.94651 6.78404C5.9767 6.7489 6.0089 6.7167 6.03909 6.68149ZM4.75896 8.42759C6.30162 9.21529 7.94947 9.77725 9.65199 10.0962C9.35132 11.2593 9.16292 12.4486 9.08944 13.6477H3.06121C3.21535 11.7997 3.79654 10.0127 4.75896 8.42759ZM4.75896 20.8806C3.79648 19.2955 3.2153 17.5085 3.06121 15.6605H9.08944C9.16327 16.8596 9.35197 18.0489 9.653 19.212C7.95018 19.5308 6.30197 20.0928 4.75896 20.8806ZM12.5263 26.453C12.4699 26.4399 12.4156 26.4218 12.3592 26.4087C11.9989 26.3241 11.6416 26.2275 11.2924 26.1068C11.2391 26.0887 11.1868 26.0675 11.1344 26.0484C10.7882 25.9276 10.4471 25.7938 10.1129 25.6458C10.0545 25.6186 9.99713 25.5884 9.93876 25.5612C9.61874 25.4089 9.30609 25.2442 9.00081 25.0671L8.79955 24.9453C8.50973 24.7682 8.22792 24.5787 7.95419 24.3767C7.88372 24.3254 7.81332 24.276 7.74385 24.2197C7.47549 24.0185 7.21851 23.8028 6.97296 23.5726C6.90857 23.5142 6.84212 23.4569 6.77872 23.3965C6.52109 23.1519 6.27555 22.8933 6.03803 22.6256C6.00784 22.5904 5.97564 22.5582 5.94545 22.5249C7.30814 21.8755 8.75173 21.4118 10.2377 21.1462C10.9261 23.0386 11.8354 24.8431 12.9468 26.5223C12.807 26.4972 12.6641 26.4831 12.5263 26.453ZM15.0865 26.0746C13.9412 24.4513 12.9992 22.6938 12.2817 20.8413C14.1455 20.6407 16.0254 20.6407 17.8892 20.8413L17.8882 20.8423C17.1699 22.6935 16.229 24.4505 15.0865 26.0746ZM24.1339 22.6266C23.8974 22.8944 23.6509 23.153 23.3932 23.3975C23.3298 23.4579 23.2634 23.5153 23.199 23.5737C22.9507 23.8005 22.6937 24.0162 22.4281 24.2208C22.3586 24.2741 22.2882 24.3265 22.2178 24.3778C21.944 24.579 21.6622 24.7686 21.3724 24.9464L21.1711 25.0682C20.8665 25.2459 20.5539 25.4106 20.2332 25.5623C20.1748 25.5895 20.1174 25.6197 20.0591 25.6469C19.7249 25.7978 19.3838 25.9317 19.0376 26.0494C18.9853 26.0685 18.9369 26.0897 18.8796 26.1078C18.5304 26.2246 18.1751 26.3212 17.8128 26.4097C17.7564 26.4228 17.7021 26.4409 17.6447 26.453C17.5069 26.4832 17.3639 26.4973 17.2241 26.5225C18.3355 24.8433 19.2449 23.0388 19.9332 21.1464C21.4192 21.412 22.8628 21.8757 24.2254 22.5251C24.1963 22.5592 24.1641 22.5914 24.1339 22.6266ZM25.4141 20.8806C23.8714 20.0929 22.2235 19.531 20.521 19.212C20.8217 18.0489 21.0101 16.8596 21.0836 15.6605H27.1118C26.9577 17.5085 26.3765 19.2954 25.4141 20.8806Z" fill="#7D83FF" fill-opacity="0.7"/>
</g>
<defs>
<clipPath id="clip0">
<rect width="28.1707" height="28.1707" fill="white" transform="translate(0.996094 0.568359)"/>
</clipPath>
</defs>
</svg>
