<svg width="16" height="16" viewBox="0 0 16 16" fill="none" xmlns="http://www.w3.org/2000/svg">
<path fill-rule="evenodd" clip-rule="evenodd" d="M7.33301 13.3332C7.33301 12.965 7.63148 12.6665 7.99967 12.6665H13.9997C14.3679 12.6665 14.6663 12.965 14.6663 13.3332C14.6663 13.7014 14.3679 13.9998 13.9997 13.9998H7.99967C7.63148 13.9998 7.33301 13.7014 7.33301 13.3332Z" fill="#121E23"/>
<path fill-rule="evenodd" clip-rule="evenodd" d="M11.9997 2.58577C11.8014 2.58577 11.6113 2.66453 11.4711 2.80473L3.26833 11.0075L2.91593 12.4171L4.32552 12.0647L12.5283 3.86192C12.5977 3.7925 12.6528 3.71009 12.6903 3.6194C12.7279 3.5287 12.7472 3.43149 12.7472 3.33332C12.7472 3.23515 12.7279 3.13794 12.6903 3.04725C12.6528 2.95655 12.5977 2.87414 12.5283 2.80473C12.4589 2.73531 12.3765 2.68025 12.2858 2.64268C12.1951 2.60511 12.0979 2.58577 11.9997 2.58577ZM10.5283 1.86192C10.9185 1.47168 11.4478 1.25244 11.9997 1.25244C12.273 1.25244 12.5435 1.30626 12.796 1.41084C13.0485 1.51541 13.2779 1.66869 13.4711 1.86192C13.6643 2.05514 13.8176 2.28454 13.9222 2.537C14.0267 2.78947 14.0806 3.06006 14.0806 3.33332C14.0806 3.60659 14.0267 3.87718 13.9222 4.12964C13.8176 4.3821 13.6643 4.6115 13.4711 4.80473L5.13776 13.1381C5.05232 13.2235 4.94527 13.2841 4.82805 13.3134L2.16138 13.9801C1.9342 14.0369 1.69387 13.9703 1.52828 13.8047C1.3627 13.6391 1.29613 13.3988 1.35293 13.1716L2.01959 10.505C2.0489 10.3877 2.10951 10.2807 2.19495 10.1953L10.5283 1.86192Z" fill="#121E23"/>
</svg>
