<svg width="30" height="30" viewBox="0 0 40 40" fill="none" xmlns="http://www.w3.org/2000/svg">
<path d="M19.8892 24.8614C22.6353 24.8614 24.8614 22.6353 24.8614 19.8892C24.8614 17.1431 22.6353 14.917 19.8892 14.917C17.1431 14.917 14.917 17.1431 14.917 19.8892C14.917 22.6353 17.1431 24.8614 19.8892 24.8614Z" stroke="#7D83FF" stroke-width="3.3148" stroke-linecap="round" stroke-linejoin="round"/>
<path d="M32.1524 24.8608C31.9318 25.3607 31.866 25.9152 31.9634 26.4529C32.0609 26.9905 32.3172 27.4867 32.6993 27.8773L32.7988 27.9767C33.107 28.2846 33.3515 28.6502 33.5183 29.0526C33.6851 29.455 33.771 29.8863 33.771 30.3219C33.771 30.7576 33.6851 31.1889 33.5183 31.5913C33.3515 31.9937 33.107 32.3593 32.7988 32.6672C32.4909 32.9754 32.1253 33.2199 31.7229 33.3867C31.3205 33.5535 30.8892 33.6393 30.4536 33.6393C30.0179 33.6393 29.5866 33.5535 29.1842 33.3867C28.7818 33.2199 28.4162 32.9754 28.1083 32.6672L28.0089 32.5677C27.6183 32.1856 27.1222 31.9293 26.5845 31.8318C26.0469 31.7343 25.4923 31.8002 24.9924 32.0208C24.5022 32.2309 24.0841 32.5797 23.7897 33.0244C23.4952 33.4691 23.3372 33.9901 23.335 34.5234V34.8052C23.335 35.6843 22.9858 36.5275 22.3641 37.1491C21.7425 37.7708 20.8994 38.12 20.0202 38.12C19.1411 38.12 18.298 37.7708 17.6763 37.1491C17.0547 36.5275 16.7054 35.6843 16.7054 34.8052V34.656C16.6926 34.1075 16.515 33.5754 16.1958 33.1291C15.8766 32.6828 15.4305 32.3428 14.9154 32.1534C14.4155 31.9327 13.861 31.8669 13.3234 31.9644C12.7857 32.0619 12.2896 32.3182 11.899 32.7003L11.7995 32.7998C11.4917 33.108 11.1261 33.3524 10.7237 33.5193C10.3213 33.6861 9.88993 33.7719 9.45431 33.7719C9.0187 33.7719 8.58735 33.6861 8.18494 33.5193C7.78253 33.3524 7.41695 33.108 7.10909 32.7998C6.80089 32.4919 6.5564 32.1263 6.38958 31.7239C6.22277 31.3215 6.13691 30.8902 6.13691 30.4545C6.13691 30.0189 6.22277 29.5876 6.38958 29.1852C6.5564 28.7828 6.80089 28.4172 7.10909 28.1093L7.20854 28.0099C7.59063 27.6193 7.84694 27.1231 7.94443 26.5855C8.04192 26.0478 7.9761 25.4933 7.75548 24.9934C7.54538 24.5032 7.19653 24.0851 6.75187 23.7906C6.3072 23.4962 5.78613 23.3381 5.25281 23.336H4.97105C4.09191 23.336 3.24878 22.9868 2.62713 22.3651C2.00549 21.7435 1.65625 20.9003 1.65625 20.0212C1.65625 19.1421 2.00549 18.2989 2.62713 17.6773C3.24878 17.0556 4.09191 16.7064 4.97105 16.7064H5.12021C5.6688 16.6936 6.20085 16.516 6.64717 16.1968C7.0935 15.8775 7.43347 15.4314 7.62289 14.9164C7.84351 14.4165 7.90932 13.862 7.81184 13.3243C7.71435 12.7867 7.45804 12.2906 7.07594 11.9L6.9765 11.8005C6.6683 11.4927 6.42381 11.1271 6.25699 10.7247C6.09018 10.3222 6.00431 9.8909 6.00431 9.45529C6.00431 9.01967 6.09018 8.58833 6.25699 8.18592C6.42381 7.78351 6.6683 7.41792 6.9765 7.11007C7.28436 6.80187 7.64994 6.55738 8.05235 6.39056C8.45476 6.22375 8.8861 6.13788 9.32172 6.13788C9.75734 6.13788 10.1887 6.22375 10.5911 6.39056C10.9935 6.55738 11.3591 6.80187 11.6669 7.11007L11.7664 7.20951C12.157 7.5916 12.6531 7.84792 13.1908 7.94541C13.7284 8.04289 14.283 7.97708 14.7829 7.75645H14.9154C15.4057 7.54636 15.8237 7.19751 16.1182 6.75284C16.4127 6.30818 16.5707 5.78711 16.5728 5.25378V4.97202C16.5728 4.09289 16.9221 3.24975 17.5437 2.62811C18.1654 2.00646 19.0085 1.65723 19.8876 1.65723C20.7668 1.65723 21.6099 2.00646 22.2316 2.62811C22.8532 3.24975 23.2024 4.09289 23.2024 4.97202V5.12119C23.2046 5.65452 23.3626 6.17559 23.6571 6.62025C23.9516 7.06491 24.3696 7.41377 24.8598 7.62386C25.3597 7.84449 25.9143 7.9103 26.4519 7.81281C26.9896 7.71533 27.4857 7.45901 27.8763 7.07692L27.9757 6.97748C28.2836 6.66928 28.6492 6.42478 29.0516 6.25797C29.454 6.09115 29.8854 6.00529 30.321 6.00529C30.7566 6.00529 31.1879 6.09115 31.5903 6.25797C31.9927 6.42478 32.3583 6.66928 32.6662 6.97748C32.9744 7.28533 33.2189 7.65092 33.3857 8.05333C33.5525 8.45574 33.6384 8.88708 33.6384 9.3227C33.6384 9.75831 33.5525 10.1897 33.3857 10.5921C33.2189 10.9945 32.9744 11.3601 32.6662 11.6679L32.5667 11.7674C32.1847 12.158 31.9283 12.6541 31.8308 13.1917C31.7334 13.7294 31.7992 14.2839 32.0198 14.7838V14.9164C32.2299 15.4066 32.5788 15.8247 33.0234 16.1192C33.4681 16.4137 33.9891 16.5717 34.5225 16.5738H34.8042C35.6834 16.5738 36.5265 16.9231 37.1481 17.5447C37.7698 18.1663 38.119 19.0095 38.119 19.8886C38.119 20.7678 37.7698 21.6109 37.1481 22.2325C36.5265 22.8542 35.6834 23.2034 34.8042 23.2034H34.6551C34.1217 23.2055 33.6007 23.3636 33.156 23.6581C32.7113 23.9525 32.3625 24.3706 32.1524 24.8608V24.8608Z" stroke="#7D83FF" stroke-width="3.3148" stroke-linecap="round" stroke-linejoin="round"/>
</svg>
