<svg width="60" height="60" viewBox="0 0 90 90" fill="none" xmlns="http://www.w3.org/2000/svg">
<path d="M58.7806 27H31.5401C29.0362 27 27 29.0362 27 31.5401V58.7806C27 61.2845 29.0362 63.3207 31.5401 63.3207H58.7806C61.2845 63.3207 63.3207 61.2845 63.3207 58.7806V31.5401C63.3207 29.0362 61.2845 27 58.7806 27ZM31.5401 30.0267H58.7806C59.6152 30.0267 60.294 30.7054 60.294 31.5401V42.2637L55.3105 37.2802C54.7194 36.6894 53.7617 36.6894 53.1705 37.2802L42.512 47.9388L38.6635 44.0904C38.0724 43.4996 37.1147 43.4996 36.5235 44.0904L30.0267 50.5872V31.5401C30.0267 30.7054 30.7054 30.0267 31.5401 30.0267ZM58.7806 60.294H31.5401C30.7054 60.294 30.0267 59.6152 30.0267 58.7806V54.8671L37.5935 47.3003L46.3604 56.0665C46.6563 56.3631 47.0428 56.5106 47.4304 56.5106C47.818 56.5106 48.2044 56.3631 48.5004 56.0672C49.0912 55.476 49.0912 54.5184 48.5004 53.9272L44.652 50.0788L54.2405 40.4909L60.294 46.5444V58.7806C60.294 59.6152 59.6152 60.294 58.7806 60.294Z" fill="#333333"/>
<path d="M39.1072 36.0826C39.1072 37.7541 37.7519 39.1094 36.0804 39.1094C34.4089 39.1094 33.0537 37.7541 33.0537 36.0826C33.0537 34.4111 34.4089 33.0559 36.0804 33.0559C37.7519 33.0559 39.1072 34.4111 39.1072 36.0826Z" fill="#333333"/>
<circle cx="45" cy="45" r="45" fill="#333333" fill-opacity="0.1"/>
</svg>

